MatrixSans-Raster.ufo
<glyph name="quotesingle" format="2">
  <advance width="200"/>
  <unicode hex="0027"/>
  <outline>
    <contour>
      <point x="40.0" y="450.0" type="curve" smooth="yes"/>
      <point x="40.0" y="472.0"/>
      <point x="58.0" y="490.0"/>
      <point x="80.0" y="490.0" type="curve" smooth="yes"/>
      <point x="120.0" y="490.0" type="line" smooth="yes"/>
      <point x="142.0" y="490.0"/>
      <point x="160.0" y="472.0"/>
      <point x="160.0" y="450.0" type="curve" smooth="yes"/>
      <point x="160.0" y="428.0"/>
      <point x="142.0" y="410.0"/>
      <point x="120.0" y="410.0" type="curve" smooth="yes"/>
      <point x="80.0" y="410.0" type="line" smooth="yes"/>
      <point x="58.0" y="410.0"/>
      <point x="40.0" y="428.0"/>
    </contour>
    <contour>
      <point x="40.0" y="550.0" type="curve" smooth="yes"/>
      <point x="40.0" y="572.0"/>
      <point x="58.0" y="590.0"/>
      <point x="80.0" y="590.0" type="curve" smooth="yes"/>
      <point x="120.0" y="590.0" type="line" smooth="yes"/>
      <point x="142.0" y="590.0"/>
      <point x="160.0" y="572.0"/>
      <point x="160.0" y="550.0" type="curve" smooth="yes"/>
      <point x="160.0" y="528.0"/>
      <point x="142.0" y="510.0"/>
      <point x="120.0" y="510.0" type="curve" smooth="yes"/>
      <point x="80.0" y="510.0" type="line" smooth="yes"/>
      <point x="58.0" y="510.0"/>
      <point x="40.0" y="528.0"/>
    </contour>
    <contour>
      <point x="40.0" y="650.0" type="curve" smooth="yes"/>
      <point x="40.0" y="672.0"/>
      <point x="58.0" y="690.0"/>
      <point x="80.0" y="690.0" type="curve" smooth="yes"/>
      <point x="120.0" y="690.0" type="line" smooth="yes"/>
      <point x="142.0" y="690.0"/>
      <point x="160.0" y="672.0"/>
      <point x="160.0" y="650.0" type="curve" smooth="yes"/>
      <point x="160.0" y="628.0"/>
      <point x="142.0" y="610.0"/>
      <point x="120.0" y="610.0" type="curve" smooth="yes"/>
      <point x="80.0" y="610.0" type="line" smooth="yes"/>
      <point x="58.0" y="610.0"/>
      <point x="40.0" y="628.0"/>
    </contour>
  </outline>
</glyph>
<glyph name="asterisk" format="2">
  <advance width="600"/>
  <unicode hex="002A"/>
  <outline>
    <contour>
      <point x="240.0" y="150.0" type="curve" smooth="yes"/>
      <point x="240.0" y="172.0"/>
      <point x="258.0" y="190.0"/>
      <point x="280.0" y="190.0" type="curve" smooth="yes"/>
      <point x="320.0" y="190.0" type="line" smooth="yes"/>
      <point x="342.0" y="190.0"/>
      <point x="360.0" y="172.0"/>
      <point x="360.0" y="150.0" type="curve" smooth="yes"/>
      <point x="360.0" y="128.0"/>
      <point x="342.0" y="110.0"/>
      <point x="320.0" y="110.0" type="curve" smooth="yes"/>
      <point x="280.0" y="110.0" type="line" smooth="yes"/>
      <point x="258.0" y="110.0"/>
      <point x="240.0" y="128.0"/>
    </contour>
    <contour>
      <point x="440.0" y="250.0" type="curve" smooth="yes"/>
      <point x="440.0" y="272.0"/>
      <point x="458.0" y="290.0"/>
      <point x="480.0" y="290.0" type="curve" smooth="yes"/>
      <point x="520.0" y="290.0" type="line" smooth="yes"/>
      <point x="542.0" y="290.0"/>
      <point x="560.0" y="272.0"/>
      <point x="560.0" y="250.0" type="curve" smooth="yes"/>
      <point x="560.0" y="228.0"/>
      <point x="542.0" y="210.0"/>
      <point x="520.0" y="210.0" type="curve" smooth="yes"/>
      <point x="480.0" y="210.0" type="line" smooth="yes"/>
      <point x="458.0" y="210.0"/>
      <point x="440.0" y="228.0"/>
    </contour>
    <contour>
      <point x="240.0" y="250.0" type="curve" smooth="yes"/>
      <point x="240.0" y="272.0"/>
      <point x="258.0" y="290.0"/>
      <point x="280.0" y="290.0" type="curve" smooth="yes"/>
      <point x="320.0" y="290.0" type="line" smooth="yes"/>
      <point x="342.0" y="290.0"/>
      <point x="360.0" y="272.0"/>
      <point x="360.0" y="250.0" type="curve" smooth="yes"/>
      <point x="360.0" y="228.0"/>
      <point x="342.0" y="210.0"/>
      <point x="320.0" y="210.0" type="curve" smooth="yes"/>
      <point x="280.0" y="210.0" type="line" smooth="yes"/>
      <point x="258.0" y="210.0"/>
      <point x="240.0" y="228.0"/>
    </contour>
    <contour>
      <point x="40.0" y="250.0" type="curve" smooth="yes"/>
      <point x="40.0" y="272.0"/>
      <point x="58.0" y="290.0"/>
      <point x="80.0" y="290.0" type="curve" smooth="yes"/>
      <point x="120.0" y="290.0" type="line" smooth="yes"/>
      <point x="142.0" y="290.0"/>
      <point x="160.0" y="272.0"/>
      <point x="160.0" y="250.0" type="curve" smooth="yes"/>
      <point x="160.0" y="228.0"/>
      <point x="142.0" y="210.0"/>
      <point x="120.0" y="210.0" type="curve" smooth="yes"/>
      <point x="80.0" y="210.0" type="line" smooth="yes"/>
      <point x="58.0" y="210.0"/>
      <point x="40.0" y="228.0"/>
    </contour>
    <contour>
      <point x="140.0" y="350.0" type="curve" smooth="yes"/>
      <point x="140.0" y="372.0"/>
      <point x="158.0" y="390.0"/>
      <point x="180.0" y="390.0" type="curve" smooth="yes"/>
      <point x="420.0" y="390.0" type="line" smooth="yes"/>
      <point x="442.0" y="390.0"/>
      <point x="460.0" y="372.0"/>
      <point x="460.0" y="350.0" type="curve" smooth="yes"/>
      <point x="460.0" y="328.0"/>
      <point x="442.0" y="310.0"/>
      <point x="420.0" y="310.0" type="curve" smooth="yes"/>
      <point x="180.0" y="310.0" type="line" smooth="yes"/>
      <point x="158.0" y="310.0"/>
      <point x="140.0" y="328.0"/>
    </contour>
    <contour>
      <point x="440.0" y="450.0" type="curve" smooth="yes"/>
      <point x="440.0" y="472.0"/>
      <point x="458.0" y="490.0"/>
      <point x="480.0" y="490.0" type="curve" smooth="yes"/>
      <point x="520.0" y="490.0" type="line" smooth="yes"/>
      <point x="542.0" y="490.0"/>
      <point x="560.0" y="472.0"/>
      <point x="560.0" y="450.0" type="curve" smooth="yes"/>
      <point x="560.0" y="428.0"/>
      <point x="542.0" y="410.0"/>
      <point x="520.0" y="410.0" type="curve" smooth="yes"/>
      <point x="480.0" y="410.0" type="line" smooth="yes"/>
      <point x="458.0" y="410.0"/>
      <point x="440.0" y="428.0"/>
    </contour>
    <contour>
      <point x="240.0" y="450.0" type="curve" smooth="yes"/>
      <point x="240.0" y="472.0"/>
      <point x="258.0" y="490.0"/>
      <point x="280.0" y="490.0" type="curve" smooth="yes"/>
      <point x="320.0" y="490.0" type="line" smooth="yes"/>
      <point x="342.0" y="490.0"/>
      <point x="360.0" y="472.0"/>
      <point x="360.0" y="450.0" type="curve" smooth="yes"/>
      <point x="360.0" y="428.0"/>
      <point x="342.0" y="410.0"/>
      <point x="320.0" y="410.0" type="curve" smooth="yes"/>
      <point x="280.0" y="410.0" type="line" smooth="yes"/>
      <point x="258.0" y="410.0"/>
      <point x="240.0" y="428.0"/>
    </contour>
    <contour>
      <point x="40.0" y="450.0" type="curve" smooth="yes"/>
      <point x="40.0" y="472.0"/>
      <point x="58.0" y="490.0"/>
      <point x="80.0" y="490.0" type="curve" smooth="yes"/>
      <point x="120.0" y="490.0" type="line" smooth="yes"/>
      <point x="142.0" y="490.0"/>
      <point x="160.0" y="472.0"/>
      <point x="160.0" y="450.0" type="curve" smooth="yes"/>
      <point x="160.0" y="428.0"/>
      <point x="142.0" y="410.0"/>
      <point x="120.0" y="410.0" type="curve" smooth="yes"/>
      <point x="80.0" y="410.0" type="line" smooth="yes"/>
      <point x="58.0" y="410.0"/>
      <point x="40.0" y="428.0"/>
    </contour>
    <contour>
      <point x="240.0" y="550.0" type="curve" smooth="yes"/>
      <point x="240.0" y="572.0"/>
      <point x="258.0" y="590.0"/>
      <point x="280.0" y="590.0" type="curve" smooth="yes"/>
      <point x="320.0" y="590.0" type="line" smooth="yes"/>
      <point x="342.0" y="590.0"/>
      <point x="360.0" y="572.0"/>
      <point x="360.0" y="550.0" type="curve" smooth="yes"/>
      <point x="360.0" y="528.0"/>
      <point x="342.0" y="510.0"/>
      <point x="320.0" y="510.0" type="curve" smooth="yes"/>
      <point x="280.0" y="510.0" type="line" smooth="yes"/>
      <point x="258.0" y="510.0"/>
      <point x="240.0" y="528.0"/>
    </contour>
  </outline>
</glyph>
<glyph name="hyphen" format="2">
  <advance width="500"/>
  <unicode hex="002D"/>
  <outline>
    <contour>
      <point x="40.0" y="350.0" type="curve" smooth="yes"/>
      <point x="40.0" y="372.0"/>
      <point x="58.0" y="390.0"/>
      <point x="80.0" y="390.0" type="curve" smooth="yes"/>
      <point x="420.0" y="390.0" type="line" smooth="yes"/>
      <point x="442.0" y="390.0"/>
      <point x="460.0" y="372.0"/>
      <point x="460.0" y="350.0" type="curve" smooth="yes"/>
      <point x="460.0" y="328.0"/>
      <point x="442.0" y="310.0"/>
      <point x="420.0" y="310.0" type="curve" smooth="yes"/>
      <point x="80.0" y="310.0" type="line" smooth="yes"/>
      <point x="58.0" y="310.0"/>
      <point x="40.0" y="328.0"/>
    </contour>
  </outline>
</glyph>
<glyph name="period" format="2">
  <advance width="200"/>
  <unicode hex="002E"/>
  <outline>
    <contour>
      <point x="40.0" y="50.0" type="curve" smooth="yes"/>
      <point x="40.0" y="72.0"/>
      <point x="58.0" y="90.0"/>
      <point x="80.0" y="90.0" type="curve" smooth="yes"/>
      <point x="120.0" y="90.0" type="line" smooth="yes"/>
      <point x="142.0" y="90.0"/>
      <point x="160.0" y="72.0"/>
      <point x="160.0" y="50.0" type="curve" smooth="yes"/>
      <point x="160.0" y="28.0"/>
      <point x="142.0" y="10.0"/>
      <point x="120.0" y="10.0" type="curve" smooth="yes"/>
      <point x="80.0" y="10.0" type="line" smooth="yes"/>
      <point x="58.0" y="10.0"/>
      <point x="40.0" y="28.0"/>
    </contour>
  </outline>
</glyph>
<glyph name="colon" format="2">
  <advance width="200"/>
  <unicode hex="003A"/>
  <outline>
    <contour>
      <point x="40.0" y="50.0" type="curve" smooth="yes"/>
      <point x="40.0" y="72.0"/>
      <point x="58.0" y="90.0"/>
      <point x="80.0" y="90.0" type="curve" smooth="yes"/>
      <point x="120.0" y="90.0" type="line" smooth="yes"/>
      <point x="142.0" y="90.0"/>
      <point x="160.0" y="72.0"/>
      <point x="160.0" y="50.0" type="curve" smooth="yes"/>
      <point x="160.0" y="28.0"/>
      <point x="142.0" y="10.0"/>
      <point x="120.0" y="10.0" type="curve" smooth="yes"/>
      <point x="80.0" y="10.0" type="line" smooth="yes"/>
      <point x="58.0" y="10.0"/>
      <point x="40.0" y="28.0"/>
    </contour>
    <contour>
      <point x="40.0" y="450.0" type="curve" smooth="yes"/>
      <point x="40.0" y="472.0"/>
      <point x="58.0" y="490.0"/>
      <point x="80.0" y="490.0" type="curve" smooth="yes"/>
      <point x="120.0" y="490.0" type="line" smooth="yes"/>
      <point x="142.0" y="490.0"/>
      <point x="160.0" y="472.0"/>
      <point x="160.0" y="450.0" type="curve" smooth="yes"/>
      <point x="160.0" y="428.0"/>
      <point x="142.0" y="410.0"/>
      <point x="120.0" y="410.0" type="curve" smooth="yes"/>
      <point x="80.0" y="410.0" type="line" smooth="yes"/>
      <point x="58.0" y="410.0"/>
      <point x="40.0" y="428.0"/>
    </contour>
  </outline>
</glyph>
<glyph name="semicolon" format="2">
  <advance width="300"/>
  <unicode hex="003B"/>
  <outline>
    <contour>
      <point x="40.0" y="-50.0" type="curve" smooth="yes"/>
      <point x="40.0" y="-28.0"/>
      <point x="58.0" y="-10.0"/>
      <point x="80.0" y="-10.0" type="curve" smooth="yes"/>
      <point x="120.0" y="-10.0" type="line" smooth="yes"/>
      <point x="142.0" y="-10.0"/>
      <point x="160.0" y="-28.0"/>
      <point x="160.0" y="-50.0" type="curve" smooth="yes"/>
      <point x="160.0" y="-72.0"/>
      <point x="142.0" y="-90.0"/>
      <point x="120.0" y="-90.0" type="curve" smooth="yes"/>
      <point x="80.0" y="-90.0" type="line" smooth="yes"/>
      <point x="58.0" y="-90.0"/>
      <point x="40.0" y="-72.0"/>
    </contour>
    <contour>
      <point x="140.0" y="50.0" type="curve" smooth="yes"/>
      <point x="140.0" y="72.0"/>
      <point x="158.0" y="90.0"/>
      <point x="180.0" y="90.0" type="curve" smooth="yes"/>
      <point x="220.0" y="90.0" type="line" smooth="yes"/>
      <point x="242.0" y="90.0"/>
      <point x="260.0" y="72.0"/>
      <point x="260.0" y="50.0" type="curve" smooth="yes"/>
      <point x="260.0" y="28.0"/>
      <point x="242.0" y="10.0"/>
      <point x="220.0" y="10.0" type="curve" smooth="yes"/>
      <point x="180.0" y="10.0" type="line" smooth="yes"/>
      <point x="158.0" y="10.0"/>
      <point x="140.0" y="28.0"/>
    </contour>
    <contour>
      <point x="140.0" y="150.0" type="curve" smooth="yes"/>
      <point x="140.0" y="172.0"/>
      <point x="158.0" y="190.0"/>
      <point x="180.0" y="190.0" type="curve" smooth="yes"/>
      <point x="220.0" y="190.0" type="line" smooth="yes"/>
      <point x="242.0" y="190.0"/>
      <point x="260.0" y="172.0"/>
      <point x="260.0" y="150.0" type="curve" smooth="yes"/>
      <point x="260.0" y="128.0"/>
      <point x="242.0" y="110.0"/>
      <point x="220.0" y="110.0" type="curve" smooth="yes"/>
      <point x="180.0" y="110.0" type="line" smooth="yes"/>
      <point x="158.0" y="110.0"/>
      <point x="140.0" y="128.0"/>
    </contour>
    <contour>
      <point x="140.0" y="450.0" type="curve" smooth="yes"/>
      <point x="140.0" y="472.0"/>
      <point x="158.0" y="490.0"/>
      <point x="180.0" y="490.0" type="curve" smooth="yes"/>
      <point x="220.0" y="490.0" type="line" smooth="yes"/>
      <point x="242.0" y="490.0"/>
      <point x="260.0" y="472.0"/>
      <point x="260.0" y="450.0" type="curve" smooth="yes"/>
      <point x="260.0" y="428.0"/>
      <point x="242.0" y="410.0"/>
      <point x="220.0" y="410.0" type="curve" smooth="yes"/>
      <point x="180.0" y="410.0" type="line" smooth="yes"/>
      <point x="158.0" y="410.0"/>
      <point x="140.0" y="428.0"/>
    </contour>
  </outline>
</glyph>
<glyph name="equal" format="2">
  <advance width="600"/>
  <unicode hex="003D"/>
  <outline>
    <contour>
      <point x="40.0" y="250.0" type="curve" smooth="yes"/>
      <point x="40.0" y="272.0"/>
      <point x="58.0" y="290.0"/>
      <point x="80.0" y="290.0" type="curve" smooth="yes"/>
      <point x="520.0" y="290.0" type="line" smooth="yes"/>
      <point x="542.0" y="290.0"/>
      <point x="560.0" y="272.0"/>
      <point x="560.0" y="250.0" type="curve" smooth="yes"/>
      <point x="560.0" y="228.0"/>
      <point x="542.0" y="210.0"/>
      <point x="520.0" y="210.0" type="curve" smooth="yes"/>
      <point x="80.0" y="210.0" type="line" smooth="yes"/>
      <point x="58.0" y="210.0"/>
      <point x="40.0" y="228.0"/>
    </contour>
    <contour>
      <point x="40.0" y="450.0" type="curve" smooth="yes"/>
      <point x="40.0" y="472.0"/>
      <point x="58.0" y="490.0"/>
      <point x="80.0" y="490.0" type="curve" smooth="yes"/>
      <point x="520.0" y="490.0" type="line" smooth="yes"/>
      <point x="542.0" y="490.0"/>
      <point x="560.0" y="472.0"/>
      <point x="560.0" y="450.0" type="curve" smooth="yes"/>
      <point x="560.0" y="428.0"/>
      <point x="542.0" y="410.0"/>
      <point x="520.0" y="410.0" type="curve" smooth="yes"/>
      <point x="80.0" y="410.0" type="line" smooth="yes"/>
      <point x="58.0" y="410.0"/>
      <point x="40.0" y="428.0"/>
    </contour>
  </outline>
</glyph>
<glyph name="underscore" format="2">
  <advance width="600"/>
  <unicode hex="005F"/>
  <outline>
    <contour>
      <point x="-10.0" y="-50.0" type="curve" smooth="yes"/>
      <point x="-10.0" y="-28.0"/>
      <point x="8.0" y="-10.0"/>
      <point x="30.0" y="-10.0" type="curve" smooth="yes"/>
      <point x="70.0" y="-10.0" type="line" smooth="yes"/>
      <point x="81.914397696" y="-10.0"/>
      <point x="92.6556311568" y="-15.2792390584"/>
      <point x="100.0" y="-23.6140167927" type="curve"/>
      <point x="104.995191492" y="-17.9452096137"/>
      <point x="111.561735273" y="-13.6898610896"/>
      <point x="119.0" y="-11.547602563" type="curve"/>
      <point x="119.0" y="-10.0" type="line"/>
      <point x="201.0" y="-10.0" type="line"/>
      <point x="201.0" y="-22.5201542249" type="line"/>
      <point x="205.857803824" y="-17.3976605348"/>
      <point x="212.048186509" y="-13.5497606299"/>
      <point x="219.0" y="-11.547602563" type="curve"/>
      <point x="219.0" y="-10.0" type="line"/>
      <point x="301.0" y="-10.0" type="line"/>
      <point x="301.0" y="-22.5201542249" type="line"/>
      <point x="305.857803824" y="-17.3976605348"/>
      <point x="312.048186509" y="-13.5497606299"/>
      <point x="319.0" y="-11.547602563" type="curve"/>
      <point x="319.0" y="-10.0" type="line"/>
      <point x="401.0" y="-10.0" type="line"/>
      <point x="401.0" y="-22.5201542249" type="line"/>
      <point x="405.857803824" y="-17.3976605348"/>
      <point x="412.048186509" y="-13.5497606299"/>
      <point x="419.0" y="-11.547602563" type="curve"/>
      <point x="419.0" y="-10.0" type="line"/>
      <point x="501.0" y="-10.0" type="line"/>
      <point x="501.0" y="-22.5201542249" type="line"/>
      <point x="505.857803824" y="-17.3976605348"/>
      <point x="512.048186509" y="-13.5497606299"/>
      <point x="519.0" y="-11.547602563" type="curve"/>
      <point x="519.0" y="-10.0" type="line"/>
      <point x="601.0" y="-10.0" type="line"/>
      <point x="601.0" y="-24.793517631" type="line"/>
      <point x="606.62032665" y="-31.6852931989"/>
      <point x="610.0" y="-40.4671273384"/>
      <point x="610.0" y="-50.0" type="curve" smooth="yes"/>
      <point x="610.0" y="-59.5328726616"/>
      <point x="606.62032665" y="-68.3147068011"/>
      <point x="601.0" y="-75.206482369" type="curve"/>
      <point x="601.0" y="-90.0" type="line"/>
      <point x="519.0" y="-90.0" type="line"/>
      <point x="519.0" y="-88.452397437" type="line"/>
      <point x="512.048186509" y="-86.4502393701"/>
      <point x="505.857803824" y="-82.6023394652"/>
      <point x="501.0" y="-77.4798457751" type="curve"/>
      <point x="501.0" y="-90.0" type="line"/>
      <point x="419.0" y="-90.0" type="line"/>
      <point x="419.0" y="-88.452397437" type="line"/>
      <point x="412.048186509" y="-86.4502393701"/>
      <point x="405.857803824" y="-82.6023394652"/>
      <point x="401.0" y="-77.4798457751" type="curve"/>
      <point x="401.0" y="-90.0" type="line"/>
      <point x="319.0" y="-90.0" type="line"/>
      <point x="319.0" y="-88.452397437" type="line"/>
      <point x="312.048186509" y="-86.4502393701"/>
      <point x="305.857803824" y="-82.6023394652"/>
      <point x="301.0" y="-77.4798457751" type="curve"/>
      <point x="301.0" y="-90.0" type="line"/>
      <point x="219.0" y="-90.0" type="line"/>
      <point x="219.0" y="-88.452397437" type="line"/>
      <point x="212.048186509" y="-86.4502393701"/>
      <point x="205.857803824" y="-82.6023394652"/>
      <point x="201.0" y="-77.4798457751" type="curve"/>
      <point x="201.0" y="-90.0" type="line"/>
      <point x="119.0" y="-90.0" type="line"/>
      <point x="119.0" y="-88.452397437" type="line"/>
      <point x="111.561735273" y="-86.3101389104"/>
      <point x="104.995191492" y="-82.0547903863"/>
      <point x="100.0" y="-76.3859832073" type="curve"/>
      <point x="92.6556311568" y="-84.7207609416"/>
      <point x="81.914397696" y="-90.0"/>
      <point x="70.0" y="-90.0" type="curve" smooth="yes"/>
      <point x="30.0" y="-90.0" type="line" smooth="yes"/>
      <point x="8.0" y="-90.0"/>
      <point x="-10.0" y="-72.0"/>
    </contour>
  </outline>
</glyph>
<glyph name="grave" format="2">
  <advance width="300"/>
  <unicode hex="0060"/>
  <outline>
    <contour>
      <point x="135.0" y="550.0" type="curve" smooth="yes"/>
      <point x="135.0" y="572.0"/>
      <point x="153.0" y="590.0"/>
      <point x="175.0" y="590.0" type="curve" smooth="yes"/>
      <point x="225.0" y="590.0" type="line" smooth="yes"/>
      <point x="247.0" y="590.0"/>
      <point x="265.0" y="572.0"/>
      <point x="265.0" y="550.0" type="curve" smooth="yes"/>
      <point x="265.0" y="528.0"/>
      <point x="247.0" y="510.0"/>
      <point x="225.0" y="510.0" type="curve" smooth="yes"/>
      <point x="175.0" y="510.0" type="line" smooth="yes"/>
      <point x="153.0" y="510.0"/>
      <point x="135.0" y="528.0"/>
    </contour>
    <contour>
      <point x="35.0" y="650.0" type="curve" smooth="yes"/>
      <point x="35.0" y="672.0"/>
      <point x="53.0" y="690.0"/>
      <point x="75.0" y="690.0" type="curve" smooth="yes"/>
      <point x="125.0" y="690.0" type="line" smooth="yes"/>
      <point x="147.0" y="690.0"/>
      <point x="165.0" y="672.0"/>
      <point x="165.0" y="650.0" type="curve" smooth="yes"/>
      <point x="165.0" y="628.0"/>
      <point x="147.0" y="610.0"/>
      <point x="125.0" y="610.0" type="curve" smooth="yes"/>
      <point x="75.0" y="610.0" type="line" smooth="yes"/>
      <point x="53.0" y="610.0"/>
      <point x="35.0" y="628.0"/>
    </contour>
  </outline>
</glyph>
<glyph name="exclamdown" format="2">
  <advance width="200"/>
  <unicode hex="00A1"/>
  <outline>
    <contour>
      <point x="40.0" y="-150.0" type="curve" smooth="yes"/>
      <point x="40.0" y="-128.0"/>
      <point x="58.0" y="-110.0"/>
      <point x="80.0" y="-110.0" type="curve" smooth="yes"/>
      <point x="120.0" y="-110.0" type="line" smooth="yes"/>
      <point x="142.0" y="-110.0"/>
      <point x="160.0" y="-128.0"/>
      <point x="160.0" y="-150.0" type="curve" smooth="yes"/>
      <point x="160.0" y="-172.0"/>
      <point x="142.0" y="-190.0"/>
      <point x="120.0" y="-190.0" type="curve" smooth="yes"/>
      <point x="80.0" y="-190.0" type="line" smooth="yes"/>
      <point x="58.0" y="-190.0"/>
      <point x="40.0" y="-172.0"/>
    </contour>
    <contour>
      <point x="40.0" y="-50.0" type="curve" smooth="yes"/>
      <point x="40.0" y="-28.0"/>
      <point x="58.0" y="-10.0"/>
      <point x="80.0" y="-10.0" type="curve" smooth="yes"/>
      <point x="120.0" y="-10.0" type="line" smooth="yes"/>
      <point x="142.0" y="-10.0"/>
      <point x="160.0" y="-28.0"/>
      <point x="160.0" y="-50.0" type="curve" smooth="yes"/>
      <point x="160.0" y="-72.0"/>
      <point x="142.0" y="-90.0"/>
      <point x="120.0" y="-90.0" type="curve" smooth="yes"/>
      <point x="80.0" y="-90.0" type="line" smooth="yes"/>
      <point x="58.0" y="-90.0"/>
      <point x="40.0" y="-72.0"/>
    </contour>
    <contour>
      <point x="40.0" y="50.0" type="curve" smooth="yes"/>
      <point x="40.0" y="72.0"/>
      <point x="58.0" y="90.0"/>
      <point x="80.0" y="90.0" type="curve" smooth="yes"/>
      <point x="120.0" y="90.0" type="line" smooth="yes"/>
      <point x="142.0" y="90.0"/>
      <point x="160.0" y="72.0"/>
      <point x="160.0" y="50.0" type="curve" smooth="yes"/>
      <point x="160.0" y="28.0"/>
      <point x="142.0" y="10.0"/>
      <point x="120.0" y="10.0" type="curve" smooth="yes"/>
      <point x="80.0" y="10.0" type="line" smooth="yes"/>
      <point x="58.0" y="10.0"/>
      <point x="40.0" y="28.0"/>
    </contour>
    <contour>
      <point x="40.0" y="150.0" type="curve" smooth="yes"/>
      <point x="40.0" y="172.0"/>
      <point x="58.0" y="190.0"/>
      <point x="80.0" y="190.0" type="curve" smooth="yes"/>
      <point x="120.0" y="190.0" type="line" smooth="yes"/>
      <point x="142.0" y="190.0"/>
      <point x="160.0" y="172.0"/>
      <point x="160.0" y="150.0" type="curve" smooth="yes"/>
      <point x="160.0" y="128.0"/>
      <point x="142.0" y="110.0"/>
      <point x="120.0" y="110.0" type="curve" smooth="yes"/>
      <point x="80.0" y="110.0" type="line" smooth="yes"/>
      <point x="58.0" y="110.0"/>
      <point x="40.0" y="128.0"/>
    </contour>
    <contour>
      <point x="40.0" y="250.0" type="curve" smooth="yes"/>
      <point x="40.0" y="272.0"/>
      <point x="58.0" y="290.0"/>
      <point x="80.0" y="290.0" type="curve" smooth="yes"/>
      <point x="120.0" y="290.0" type="line" smooth="yes"/>
      <point x="142.0" y="290.0"/>
      <point x="160.0" y="272.0"/>
      <point x="160.0" y="250.0" type="curve" smooth="yes"/>
      <point x="160.0" y="228.0"/>
      <point x="142.0" y="210.0"/>
      <point x="120.0" y="210.0" type="curve" smooth="yes"/>
      <point x="80.0" y="210.0" type="line" smooth="yes"/>
      <point x="58.0" y="210.0"/>
      <point x="40.0" y="228.0"/>
    </contour>
    <contour>
      <point x="40.0" y="450.0" type="curve" smooth="yes"/>
      <point x="40.0" y="472.0"/>
      <point x="58.0" y="490.0"/>
      <point x="80.0" y="490.0" type="curve" smooth="yes"/>
      <point x="120.0" y="490.0" type="line" smooth="yes"/>
      <point x="142.0" y="490.0"/>
      <point x="160.0" y="472.0"/>
      <point x="160.0" y="450.0" type="curve" smooth="yes"/>
      <point x="160.0" y="428.0"/>
      <point x="142.0" y="410.0"/>
      <point x="120.0" y="410.0" type="curve" smooth="yes"/>
      <point x="80.0" y="410.0" type="line" smooth="yes"/>
      <point x="58.0" y="410.0"/>
      <point x="40.0" y="428.0"/>
    </contour>
  </outline>
</glyph>
<glyph name="dieresis" format="2">
  <advance width="400"/>
  <unicode hex="00A8"/>
  <outline>
    <contour>
      <point x="240.0" y="650.0" type="curve" smooth="yes"/>
      <point x="240.0" y="672.0"/>
      <point x="258.0" y="690.0"/>
      <point x="280.0" y="690.0" type="curve" smooth="yes"/>
      <point x="320.0" y="690.0" type="line" smooth="yes"/>
      <point x="342.0" y="690.0"/>
      <point x="360.0" y="672.0"/>
      <point x="360.0" y="650.0" type="curve" smooth="yes"/>
      <point x="360.0" y="628.0"/>
      <point x="342.0" y="610.0"/>
      <point x="320.0" y="610.0" type="curve" smooth="yes"/>
      <point x="280.0" y="610.0" type="line" smooth="yes"/>
      <point x="258.0" y="610.0"/>
      <point x="240.0" y="628.0"/>
    </contour>
    <contour>
      <point x="40.0" y="650.0" type="curve" smooth="yes"/>
      <point x="40.0" y="672.0"/>
      <point x="58.0" y="690.0"/>
      <point x="80.0" y="690.0" type="curve" smooth="yes"/>
      <point x="120.0" y="690.0" type="line" smooth="yes"/>
      <point x="142.0" y="690.0"/>
      <point x="160.0" y="672.0"/>
      <point x="160.0" y="650.0" type="curve" smooth="yes"/>
      <point x="160.0" y="628.0"/>
      <point x="142.0" y="610.0"/>
      <point x="120.0" y="610.0" type="curve" smooth="yes"/>
      <point x="80.0" y="610.0" type="line" smooth="yes"/>
      <point x="58.0" y="610.0"/>
      <point x="40.0" y="628.0"/>
    </contour>
  </outline>
</glyph>
<glyph name="ordfeminine" format="2">
  <advance width="500"/>
  <unicode hex="00AA"/>
  <outline>
    <contour>
      <point x="40.0" y="150.0" type="curve" smooth="yes"/>
      <point x="40.0" y="172.0"/>
      <point x="58.0" y="190.0"/>
      <point x="80.0" y="190.0" type="curve" smooth="yes"/>
      <point x="420.0" y="190.0" type="line" smooth="yes"/>
      <point x="442.0" y="190.0"/>
      <point x="460.0" y="172.0"/>
      <point x="460.0" y="150.0" type="curve" smooth="yes"/>
      <point x="460.0" y="128.0"/>
      <point x="442.0" y="110.0"/>
      <point x="420.0" y="110.0" type="curve" smooth="yes"/>
      <point x="80.0" y="110.0" type="line" smooth="yes"/>
      <point x="58.0" y="110.0"/>
      <point x="40.0" y="128.0"/>
    </contour>
    <contour>
      <point x="140.0" y="350.0" type="curve" smooth="yes"/>
      <point x="140.0" y="372.0"/>
      <point x="158.0" y="390.0"/>
      <point x="180.0" y="390.0" type="curve" smooth="yes"/>
      <point x="420.0" y="390.0" type="line" smooth="yes"/>
      <point x="442.0" y="390.0"/>
      <point x="460.0" y="372.0"/>
      <point x="460.0" y="350.0" type="curve" smooth="yes"/>
      <point x="460.0" y="328.0"/>
      <point x="442.0" y="310.0"/>
      <point x="420.0" y="310.0" type="curve" smooth="yes"/>
      <point x="180.0" y="310.0" type="line" smooth="yes"/>
      <point x="158.0" y="310.0"/>
      <point x="140.0" y="328.0"/>
    </contour>
    <contour>
      <point x="340.0" y="450.0" type="curve" smooth="yes"/>
      <point x="340.0" y="472.0"/>
      <point x="358.0" y="490.0"/>
      <point x="380.0" y="490.0" type="curve" smooth="yes"/>
      <point x="420.0" y="490.0" type="line" smooth="yes"/>
      <point x="442.0" y="490.0"/>
      <point x="460.0" y="472.0"/>
      <point x="460.0" y="450.0" type="curve" smooth="yes"/>
      <point x="460.0" y="428.0"/>
      <point x="442.0" y="410.0"/>
      <point x="420.0" y="410.0" type="curve" smooth="yes"/>
      <point x="380.0" y="410.0" type="line" smooth="yes"/>
      <point x="358.0" y="410.0"/>
      <point x="340.0" y="428.0"/>
    </contour>
    <contour>
      <point x="40.0" y="450.0" type="curve" smooth="yes"/>
      <point x="40.0" y="472.0"/>
      <point x="58.0" y="490.0"/>
      <point x="80.0" y="490.0" type="curve" smooth="yes"/>
      <point x="120.0" y="490.0" type="line" smooth="yes"/>
      <point x="142.0" y="490.0"/>
      <point x="160.0" y="472.0"/>
      <point x="160.0" y="450.0" type="curve" smooth="yes"/>
      <point x="160.0" y="428.0"/>
      <point x="142.0" y="410.0"/>
      <point x="120.0" y="410.0" type="curve" smooth="yes"/>
      <point x="80.0" y="410.0" type="line" smooth="yes"/>
      <point x="58.0" y="410.0"/>
      <point x="40.0" y="428.0"/>
    </contour>
    <contour>
      <point x="340.0" y="550.0" type="curve" smooth="yes"/>
      <point x="340.0" y="572.0"/>
      <point x="358.0" y="590.0"/>
      <point x="380.0" y="590.0" type="curve" smooth="yes"/>
      <point x="420.0" y="590.0" type="line" smooth="yes"/>
      <point x="442.0" y="590.0"/>
      <point x="460.0" y="572.0"/>
      <point x="460.0" y="550.0" type="curve" smooth="yes"/>
      <point x="460.0" y="528.0"/>
      <point x="442.0" y="510.0"/>
      <point x="420.0" y="510.0" type="curve" smooth="yes"/>
      <point x="380.0" y="510.0" type="line" smooth="yes"/>
      <point x="358.0" y="510.0"/>
      <point x="340.0" y="528.0"/>
    </contour>
    <contour>
      <point x="40.0" y="550.0" type="curve" smooth="yes"/>
      <point x="40.0" y="572.0"/>
      <point x="58.0" y="590.0"/>
      <point x="80.0" y="590.0" type="curve" smooth="yes"/>
      <point x="120.0" y="590.0" type="line" smooth="yes"/>
      <point x="142.0" y="590.0"/>
      <point x="160.0" y="572.0"/>
      <point x="160.0" y="550.0" type="curve" smooth="yes"/>
      <point x="160.0" y="528.0"/>
      <point x="142.0" y="510.0"/>
      <point x="120.0" y="510.0" type="curve" smooth="yes"/>
      <point x="80.0" y="510.0" type="line" smooth="yes"/>
      <point x="58.0" y="510.0"/>
      <point x="40.0" y="528.0"/>
    </contour>
    <contour>
      <point x="140.0" y="650.0" type="curve" smooth="yes"/>
      <point x="140.0" y="672.0"/>
      <point x="158.0" y="690.0"/>
      <point x="180.0" y="690.0" type="curve" smooth="yes"/>
      <point x="420.0" y="690.0" type="line" smooth="yes"/>
      <point x="442.0" y="690.0"/>
      <point x="460.0" y="672.0"/>
      <point x="460.0" y="650.0" type="curve" smooth="yes"/>
      <point x="460.0" y="628.0"/>
      <point x="442.0" y="610.0"/>
      <point x="420.0" y="610.0" type="curve" smooth="yes"/>
      <point x="180.0" y="610.0" type="line" smooth="yes"/>
      <point x="158.0" y="610.0"/>
      <point x="140.0" y="628.0"/>
    </contour>
  </outline>
</glyph>
<glyph name="logicalnot" format="2">
  <advance width="600"/>
  <unicode hex="00AC"/>
  <outline>
    <contour>
      <point x="440.0" y="150.0" type="curve" smooth="yes"/>
      <point x="440.0" y="172.0"/>
      <point x="458.0" y="190.0"/>
      <point x="480.0" y="190.0" type="curve" smooth="yes"/>
      <point x="520.0" y="190.0" type="line" smooth="yes"/>
      <point x="542.0" y="190.0"/>
      <point x="560.0" y="172.0"/>
      <point x="560.0" y="150.0" type="curve" smooth="yes"/>
      <point x="560.0" y="128.0"/>
      <point x="542.0" y="110.0"/>
      <point x="520.0" y="110.0" type="curve" smooth="yes"/>
      <point x="480.0" y="110.0" type="line" smooth="yes"/>
      <point x="458.0" y="110.0"/>
      <point x="440.0" y="128.0"/>
    </contour>
    <contour>
      <point x="440.0" y="250.0" type="curve" smooth="yes"/>
      <point x="440.0" y="272.0"/>
      <point x="458.0" y="290.0"/>
      <point x="480.0" y="290.0" type="curve" smooth="yes"/>
      <point x="520.0" y="290.0" type="line" smooth="yes"/>
      <point x="542.0" y="290.0"/>
      <point x="560.0" y="272.0"/>
      <point x="560.0" y="250.0" type="curve" smooth="yes"/>
      <point x="560.0" y="228.0"/>
      <point x="542.0" y="210.0"/>
      <point x="520.0" y="210.0" type="curve" smooth="yes"/>
      <point x="480.0" y="210.0" type="line" smooth="yes"/>
      <point x="458.0" y="210.0"/>
      <point x="440.0" y="228.0"/>
    </contour>
    <contour>
      <point x="40.0" y="350.0" type="curve" smooth="yes"/>
      <point x="40.0" y="372.0"/>
      <point x="58.0" y="390.0"/>
      <point x="80.0" y="390.0" type="curve" smooth="yes"/>
      <point x="520.0" y="390.0" type="line" smooth="yes"/>
      <point x="542.0" y="390.0"/>
      <point x="560.0" y="372.0"/>
      <point x="560.0" y="350.0" type="curve" smooth="yes"/>
      <point x="560.0" y="328.0"/>
      <point x="542.0" y="310.0"/>
      <point x="520.0" y="310.0" type="curve" smooth="yes"/>
      <point x="80.0" y="310.0" type="line" smooth="yes"/>
      <point x="58.0" y="310.0"/>
      <point x="40.0" y="328.0"/>
    </contour>
  </outline>
</glyph>
<glyph name="macron" format="2">
  <advance width="400"/>
  <unicode hex="00AF"/>
  <outline>
    <contour>
      <point x="35.0" y="650.0" type="curve" smooth="yes"/>
      <point x="35.0" y="672.0"/>
      <point x="53.0" y="690.0"/>
      <point x="75.0" y="690.0" type="curve" smooth="yes"/>
      <point x="325.0" y="690.0" type="line" smooth="yes"/>
      <point x="347.0" y="690.0"/>
      <point x="365.0" y="672.0"/>
      <point x="365.0" y="650.0" type="curve" smooth="yes"/>
      <point x="365.0" y="628.0"/>
      <point x="347.0" y="610.0"/>
      <point x="325.0" y="610.0" type="curve" smooth="yes"/>
      <point x="75.0" y="610.0" type="line" smooth="yes"/>
      <point x="53.0" y="610.0"/>
      <point x="35.0" y="628.0"/>
    </contour>
  </outline>
</glyph>
<glyph name="acute" format="2">
  <advance width="300"/>
  <unicode hex="00B4"/>
  <outline>
    <contour>
      <point x="40.0" y="550.0" type="curve" smooth="yes"/>
      <point x="40.0" y="572.0"/>
      <point x="58.0" y="590.0"/>
      <point x="80.0" y="590.0" type="curve" smooth="yes"/>
      <point x="120.0" y="590.0" type="line" smooth="yes"/>
      <point x="142.0" y="590.0"/>
      <point x="160.0" y="572.0"/>
      <point x="160.0" y="550.0" type="curve" smooth="yes"/>
      <point x="160.0" y="528.0"/>
      <point x="142.0" y="510.0"/>
      <point x="120.0" y="510.0" type="curve" smooth="yes"/>
      <point x="80.0" y="510.0" type="line" smooth="yes"/>
      <point x="58.0" y="510.0"/>
      <point x="40.0" y="528.0"/>
    </contour>
    <contour>
      <point x="140.0" y="650.0" type="curve" smooth="yes"/>
      <point x="140.0" y="672.0"/>
      <point x="158.0" y="690.0"/>
      <point x="180.0" y="690.0" type="curve" smooth="yes"/>
      <point x="220.0" y="690.0" type="line" smooth="yes"/>
      <point x="242.0" y="690.0"/>
      <point x="260.0" y="672.0"/>
      <point x="260.0" y="650.0" type="curve" smooth="yes"/>
      <point x="260.0" y="628.0"/>
      <point x="242.0" y="610.0"/>
      <point x="220.0" y="610.0" type="curve" smooth="yes"/>
      <point x="180.0" y="610.0" type="line" smooth="yes"/>
      <point x="158.0" y="610.0"/>
      <point x="140.0" y="628.0"/>
    </contour>
  </outline>
</glyph>
<glyph name="cedilla" format="2">
  <advance width="300"/>
  <unicode hex="00B8"/>
  <outline>
    <contour>
      <point x="35.0" y="-150.0" type="curve" smooth="yes"/>
      <point x="35.0" y="-128.0"/>
      <point x="53.0" y="-110.0"/>
      <point x="75.0" y="-110.0" type="curve" smooth="yes"/>
      <point x="225.0" y="-110.0" type="line" smooth="yes"/>
      <point x="247.0" y="-110.0"/>
      <point x="265.0" y="-128.0"/>
      <point x="265.0" y="-150.0" type="curve" smooth="yes"/>
      <point x="265.0" y="-172.0"/>
      <point x="247.0" y="-190.0"/>
      <point x="225.0" y="-190.0" type="curve" smooth="yes"/>
      <point x="75.0" y="-190.0" type="line" smooth="yes"/>
      <point x="53.0" y="-190.0"/>
      <point x="35.0" y="-172.0"/>
    </contour>
    <contour>
      <point x="135.0" y="-50.0" type="curve" smooth="yes"/>
      <point x="135.0" y="-28.0"/>
      <point x="153.0" y="-10.0"/>
      <point x="175.0" y="-10.0" type="curve" smooth="yes"/>
      <point x="225.0" y="-10.0" type="line" smooth="yes"/>
      <point x="247.0" y="-10.0"/>
      <point x="265.0" y="-28.0"/>
      <point x="265.0" y="-50.0" type="curve" smooth="yes"/>
      <point x="265.0" y="-72.0"/>
      <point x="247.0" y="-90.0"/>
      <point x="225.0" y="-90.0" type="curve" smooth="yes"/>
      <point x="175.0" y="-90.0" type="line" smooth="yes"/>
      <point x="153.0" y="-90.0"/>
      <point x="135.0" y="-72.0"/>
    </contour>
  </outline>
</glyph>
<glyph name="ordmasculine" format="2">
  <advance width="500"/>
  <unicode hex="00BA"/>
  <outline>
    <contour>
      <point x="35.0" y="150.0" type="curve" smooth="yes"/>
      <point x="35.0" y="172.0"/>
      <point x="53.0" y="190.0"/>
      <point x="75.0" y="190.0" type="curve" smooth="yes"/>
      <point x="425.0" y="190.0" type="line" smooth="yes"/>
      <point x="447.0" y="190.0"/>
      <point x="465.0" y="172.0"/>
      <point x="465.0" y="150.0" type="curve" smooth="yes"/>
      <point x="465.0" y="128.0"/>
      <point x="447.0" y="110.0"/>
      <point x="425.0" y="110.0" type="curve" smooth="yes"/>
      <point x="75.0" y="110.0" type="line" smooth="yes"/>
      <point x="53.0" y="110.0"/>
      <point x="35.0" y="128.0"/>
    </contour>
    <contour>
      <point x="135.0" y="350.0" type="curve" smooth="yes"/>
      <point x="135.0" y="372.0"/>
      <point x="153.0" y="390.0"/>
      <point x="175.0" y="390.0" type="curve" smooth="yes"/>
      <point x="325.0" y="390.0" type="line" smooth="yes"/>
      <point x="347.0" y="390.0"/>
      <point x="365.0" y="372.0"/>
      <point x="365.0" y="350.0" type="curve" smooth="yes"/>
      <point x="365.0" y="328.0"/>
      <point x="347.0" y="310.0"/>
      <point x="325.0" y="310.0" type="curve" smooth="yes"/>
      <point x="175.0" y="310.0" type="line" smooth="yes"/>
      <point x="153.0" y="310.0"/>
      <point x="135.0" y="328.0"/>
    </contour>
    <contour>
      <point x="335.0" y="450.0" type="curve" smooth="yes"/>
      <point x="335.0" y="472.0"/>
      <point x="353.0" y="490.0"/>
      <point x="375.0" y="490.0" type="curve" smooth="yes"/>
      <point x="425.0" y="490.0" type="line" smooth="yes"/>
      <point x="447.0" y="490.0"/>
      <point x="465.0" y="472.0"/>
      <point x="465.0" y="450.0" type="curve" smooth="yes"/>
      <point x="465.0" y="428.0"/>
      <point x="447.0" y="410.0"/>
      <point x="425.0" y="410.0" type="curve" smooth="yes"/>
      <point x="375.0" y="410.0" type="line" smooth="yes"/>
      <point x="353.0" y="410.0"/>
      <point x="335.0" y="428.0"/>
    </contour>
    <contour>
      <point x="35.0" y="450.0" type="curve" smooth="yes"/>
      <point x="35.0" y="472.0"/>
      <point x="53.0" y="490.0"/>
      <point x="75.0" y="490.0" type="curve" smooth="yes"/>
      <point x="125.0" y="490.0" type="line" smooth="yes"/>
      <point x="147.0" y="490.0"/>
      <point x="165.0" y="472.0"/>
      <point x="165.0" y="450.0" type="curve" smooth="yes"/>
      <point x="165.0" y="428.0"/>
      <point x="147.0" y="410.0"/>
      <point x="125.0" y="410.0" type="curve" smooth="yes"/>
      <point x="75.0" y="410.0" type="line" smooth="yes"/>
      <point x="53.0" y="410.0"/>
      <point x="35.0" y="428.0"/>
    </contour>
    <contour>
      <point x="335.0" y="550.0" type="curve" smooth="yes"/>
      <point x="335.0" y="572.0"/>
      <point x="353.0" y="590.0"/>
      <point x="375.0" y="590.0" type="curve" smooth="yes"/>
      <point x="425.0" y="590.0" type="line" smooth="yes"/>
      <point x="447.0" y="590.0"/>
      <point x="465.0" y="572.0"/>
      <point x="465.0" y="550.0" type="curve" smooth="yes"/>
      <point x="465.0" y="528.0"/>
      <point x="447.0" y="510.0"/>
      <point x="425.0" y="510.0" type="curve" smooth="yes"/>
      <point x="375.0" y="510.0" type="line" smooth="yes"/>
      <point x="353.0" y="510.0"/>
      <point x="335.0" y="528.0"/>
    </contour>
    <contour>
      <point x="35.0" y="550.0" type="curve" smooth="yes"/>
      <point x="35.0" y="572.0"/>
      <point x="53.0" y="590.0"/>
      <point x="75.0" y="590.0" type="curve" smooth="yes"/>
      <point x="125.0" y="590.0" type="line" smooth="yes"/>
      <point x="147.0" y="590.0"/>
      <point x="165.0" y="572.0"/>
      <point x="165.0" y="550.0" type="curve" smooth="yes"/>
      <point x="165.0" y="528.0"/>
      <point x="147.0" y="510.0"/>
      <point x="125.0" y="510.0" type="curve" smooth="yes"/>
      <point x="75.0" y="510.0" type="line" smooth="yes"/>
      <point x="53.0" y="510.0"/>
      <point x="35.0" y="528.0"/>
    </contour>
    <contour>
      <point x="135.0" y="650.0" type="curve" smooth="yes"/>
      <point x="135.0" y="672.0"/>
      <point x="153.0" y="690.0"/>
      <point x="175.0" y="690.0" type="curve" smooth="yes"/>
      <point x="325.0" y="690.0" type="line" smooth="yes"/>
      <point x="347.0" y="690.0"/>
      <point x="365.0" y="672.0"/>
      <point x="365.0" y="650.0" type="curve" smooth="yes"/>
      <point x="365.0" y="628.0"/>
      <point x="347.0" y="610.0"/>
      <point x="325.0" y="610.0" type="curve" smooth="yes"/>
      <point x="175.0" y="610.0" type="line" smooth="yes"/>
      <point x="153.0" y="610.0"/>
      <point x="135.0" y="628.0"/>
    </contour>
  </outline>
</glyph>
<glyph name="eng" format="2">
  <advance width="600"/>
  <unicode hex="014B"/>
  <outline>
    <contour>
      <point x="240.0" y="-150.0" type="curve" smooth="yes"/>
      <point x="240.0" y="-128.0"/>
      <point x="258.0" y="-110.0"/>
      <point x="280.0" y="-110.0" type="curve" smooth="yes"/>
      <point x="420.0" y="-110.0" type="line" smooth="yes"/>
      <point x="442.0" y="-110.0"/>
      <point x="460.0" y="-128.0"/>
      <point x="460.0" y="-150.0" type="curve" smooth="yes"/>
      <point x="460.0" y="-172.0"/>
      <point x="442.0" y="-190.0"/>
      <point x="420.0" y="-190.0" type="curve" smooth="yes"/>
      <point x="280.0" y="-190.0" type="line" smooth="yes"/>
      <point x="258.0" y="-190.0"/>
      <point x="240.0" y="-172.0"/>
    </contour>
    <contour>
      <point x="440.0" y="-50.0" type="curve" smooth="yes"/>
      <point x="440.0" y="-28.0"/>
      <point x="458.0" y="-10.0"/>
      <point x="480.0" y="-10.0" type="curve" smooth="yes"/>
      <point x="520.0" y="-10.0" type="line" smooth="yes"/>
      <point x="542.0" y="-10.0"/>
      <point x="560.0" y="-28.0"/>
      <point x="560.0" y="-50.0" type="curve" smooth="yes"/>
      <point x="560.0" y="-72.0"/>
      <point x="542.0" y="-90.0"/>
      <point x="520.0" y="-90.0" type="curve" smooth="yes"/>
      <point x="480.0" y="-90.0" type="line" smooth="yes"/>
      <point x="458.0" y="-90.0"/>
      <point x="440.0" y="-72.0"/>
    </contour>
    <contour>
      <point x="440.0" y="50.0" type="curve" smooth="yes"/>
      <point x="440.0" y="72.0"/>
      <point x="458.0" y="90.0"/>
      <point x="480.0" y="90.0" type="curve" smooth="yes"/>
      <point x="520.0" y="90.0" type="line" smooth="yes"/>
      <point x="542.0" y="90.0"/>
      <point x="560.0" y="72.0"/>
      <point x="560.0" y="50.0" type="curve" smooth="yes"/>
      <point x="560.0" y="28.0"/>
      <point x="542.0" y="10.0"/>
      <point x="520.0" y="10.0" type="curve" smooth="yes"/>
      <point x="480.0" y="10.0" type="line" smooth="yes"/>
      <point x="458.0" y="10.0"/>
      <point x="440.0" y="28.0"/>
    </contour>
    <contour>
      <point x="40.0" y="50.0" type="curve" smooth="yes"/>
      <point x="40.0" y="72.0"/>
      <point x="58.0" y="90.0"/>
      <point x="80.0" y="90.0" type="curve" smooth="yes"/>
      <point x="120.0" y="90.0" type="line" smooth="yes"/>
      <point x="142.0" y="90.0"/>
      <point x="160.0" y="72.0"/>
      <point x="160.0" y="50.0" type="curve" smooth="yes"/>
      <point x="160.0" y="28.0"/>
      <point x="142.0" y="10.0"/>
      <point x="120.0" y="10.0" type="curve" smooth="yes"/>
      <point x="80.0" y="10.0" type="line" smooth="yes"/>
      <point x="58.0" y="10.0"/>
      <point x="40.0" y="28.0"/>
    </contour>
    <contour>
      <point x="440.0" y="150.0" type="curve" smooth="yes"/>
      <point x="440.0" y="172.0"/>
      <point x="458.0" y="190.0"/>
      <point x="480.0" y="190.0" type="curve" smooth="yes"/>
      <point x="520.0" y="190.0" type="line" smooth="yes"/>
      <point x="542.0" y="190.0"/>
      <point x="560.0" y="172.0"/>
      <point x="560.0" y="150.0" type="curve" smooth="yes"/>
      <point x="560.0" y="128.0"/>
      <point x="542.0" y="110.0"/>
      <point x="520.0" y="110.0" type="curve" smooth="yes"/>
      <point x="480.0" y="110.0" type="line" smooth="yes"/>
      <point x="458.0" y="110.0"/>
      <point x="440.0" y="128.0"/>
    </contour>
    <contour>
      <point x="40.0" y="150.0" type="curve" smooth="yes"/>
      <point x="40.0" y="172.0"/>
      <point x="58.0" y="190.0"/>
      <point x="80.0" y="190.0" type="curve" smooth="yes"/>
      <point x="120.0" y="190.0" type="line" smooth="yes"/>
      <point x="142.0" y="190.0"/>
      <point x="160.0" y="172.0"/>
      <point x="160.0" y="150.0" type="curve" smooth="yes"/>
      <point x="160.0" y="128.0"/>
      <point x="142.0" y="110.0"/>
      <point x="120.0" y="110.0" type="curve" smooth="yes"/>
      <point x="80.0" y="110.0" type="line" smooth="yes"/>
      <point x="58.0" y="110.0"/>
      <point x="40.0" y="128.0"/>
    </contour>
    <contour>
      <point x="440.0" y="250.0" type="curve" smooth="yes"/>
      <point x="440.0" y="272.0"/>
      <point x="458.0" y="290.0"/>
      <point x="480.0" y="290.0" type="curve" smooth="yes"/>
      <point x="520.0" y="290.0" type="line" smooth="yes"/>
      <point x="542.0" y="290.0"/>
      <point x="560.0" y="272.0"/>
      <point x="560.0" y="250.0" type="curve" smooth="yes"/>
      <point x="560.0" y="228.0"/>
      <point x="542.0" y="210.0"/>
      <point x="520.0" y="210.0" type="curve" smooth="yes"/>
      <point x="480.0" y="210.0" type="line" smooth="yes"/>
      <point x="458.0" y="210.0"/>
      <point x="440.0" y="228.0"/>
    </contour>
    <contour>
      <point x="40.0" y="250.0" type="curve" smooth="yes"/>
      <point x="40.0" y="272.0"/>
      <point x="58.0" y="290.0"/>
      <point x="80.0" y="290.0" type="curve" smooth="yes"/>
      <point x="120.0" y="290.0" type="line" smooth="yes"/>
      <point x="142.0" y="290.0"/>
      <point x="160.0" y="272.0"/>
      <point x="160.0" y="250.0" type="curve" smooth="yes"/>
      <point x="160.0" y="228.0"/>
      <point x="142.0" y="210.0"/>
      <point x="120.0" y="210.0" type="curve" smooth="yes"/>
      <point x="80.0" y="210.0" type="line" smooth="yes"/>
      <point x="58.0" y="210.0"/>
      <point x="40.0" y="228.0"/>
    </contour>
    <contour>
      <point x="440.0" y="350.0" type="curve" smooth="yes"/>
      <point x="440.0" y="372.0"/>
      <point x="458.0" y="390.0"/>
      <point x="480.0" y="390.0" type="curve" smooth="yes"/>
      <point x="520.0" y="390.0" type="line" smooth="yes"/>
      <point x="542.0" y="390.0"/>
      <point x="560.0" y="372.0"/>
      <point x="560.0" y="350.0" type="curve" smooth="yes"/>
      <point x="560.0" y="328.0"/>
      <point x="542.0" y="310.0"/>
      <point x="520.0" y="310.0" type="curve" smooth="yes"/>
      <point x="480.0" y="310.0" type="line" smooth="yes"/>
      <point x="458.0" y="310.0"/>
      <point x="440.0" y="328.0"/>
    </contour>
    <contour>
      <point x="40.0" y="350.0" type="curve" smooth="yes"/>
      <point x="40.0" y="372.0"/>
      <point x="58.0" y="390.0"/>
      <point x="80.0" y="390.0" type="curve" smooth="yes"/>
      <point x="220.0" y="390.0" type="line" smooth="yes"/>
      <point x="242.0" y="390.0"/>
      <point x="260.0" y="372.0"/>
      <point x="260.0" y="350.0" type="curve" smooth="yes"/>
      <point x="260.0" y="328.0"/>
      <point x="242.0" y="310.0"/>
      <point x="220.0" y="310.0" type="curve" smooth="yes"/>
      <point x="80.0" y="310.0" type="line" smooth="yes"/>
      <point x="58.0" y="310.0"/>
      <point x="40.0" y="328.0"/>
    </contour>
    <contour>
      <point x="240.0" y="450.0" type="curve" smooth="yes"/>
      <point x="240.0" y="472.0"/>
      <point x="258.0" y="490.0"/>
      <point x="280.0" y="490.0" type="curve" smooth="yes"/>
      <point x="420.0" y="490.0" type="line" smooth="yes"/>
      <point x="442.0" y="490.0"/>
      <point x="460.0" y="472.0"/>
      <point x="460.0" y="450.0" type="curve" smooth="yes"/>
      <point x="460.0" y="428.0"/>
      <point x="442.0" y="410.0"/>
      <point x="420.0" y="410.0" type="curve" smooth="yes"/>
      <point x="280.0" y="410.0" type="line" smooth="yes"/>
      <point x="258.0" y="410.0"/>
      <point x="240.0" y="428.0"/>
    </contour>
    <contour>
      <point x="40.0" y="450.0" type="curve" smooth="yes"/>
      <point x="40.0" y="472.0"/>
      <point x="58.0" y="490.0"/>
      <point x="80.0" y="490.0" type="curve" smooth="yes"/>
      <point x="120.0" y="490.0" type="line" smooth="yes"/>
      <point x="142.0" y="490.0"/>
      <point x="160.0" y="472.0"/>
      <point x="160.0" y="450.0" type="curve" smooth="yes"/>
      <point x="160.0" y="428.0"/>
      <point x="142.0" y="410.0"/>
      <point x="120.0" y="410.0" type="curve" smooth="yes"/>
      <point x="80.0" y="410.0" type="line" smooth="yes"/>
      <point x="58.0" y="410.0"/>
      <point x="40.0" y="428.0"/>
    </contour>
  </outline>
</glyph>
<glyph name="caron" format="2">
  <advance width="400"/>
  <unicode hex="02C7"/>
  <outline>
    <contour>
      <point x="135.0" y="650.0" type="curve" smooth="yes"/>
      <point x="135.0" y="672.0"/>
      <point x="153.0" y="690.0"/>
      <point x="175.0" y="690.0" type="curve" smooth="yes"/>
      <point x="225.0" y="690.0" type="line" smooth="yes"/>
      <point x="247.0" y="690.0"/>
      <point x="265.0" y="672.0"/>
      <point x="265.0" y="650.0" type="curve" smooth="yes"/>
      <point x="265.0" y="628.0"/>
      <point x="247.0" y="610.0"/>
      <point x="225.0" y="610.0" type="curve" smooth="yes"/>
      <point x="175.0" y="610.0" type="line" smooth="yes"/>
      <point x="153.0" y="610.0"/>
      <point x="135.0" y="628.0"/>
    </contour>
    <contour>
      <point x="235.0" y="750.0" type="curve" smooth="yes"/>
      <point x="235.0" y="772.0"/>
      <point x="253.0" y="790.0"/>
      <point x="275.0" y="790.0" type="curve" smooth="yes"/>
      <point x="325.0" y="790.0" type="line" smooth="yes"/>
      <point x="347.0" y="790.0"/>
      <point x="365.0" y="772.0"/>
      <point x="365.0" y="750.0" type="curve" smooth="yes"/>
      <point x="365.0" y="728.0"/>
      <point x="347.0" y="710.0"/>
      <point x="325.0" y="710.0" type="curve" smooth="yes"/>
      <point x="275.0" y="710.0" type="line" smooth="yes"/>
      <point x="253.0" y="710.0"/>
      <point x="235.0" y="728.0"/>
    </contour>
    <contour>
      <point x="35.0" y="750.0" type="curve" smooth="yes"/>
      <point x="35.0" y="772.0"/>
      <point x="53.0" y="790.0"/>
      <point x="75.0" y="790.0" type="curve" smooth="yes"/>
      <point x="125.0" y="790.0" type="line" smooth="yes"/>
      <point x="147.0" y="790.0"/>
      <point x="165.0" y="772.0"/>
      <point x="165.0" y="750.0" type="curve" smooth="yes"/>
      <point x="165.0" y="728.0"/>
      <point x="147.0" y="710.0"/>
      <point x="125.0" y="710.0" type="curve" smooth="yes"/>
      <point x="75.0" y="710.0" type="line" smooth="yes"/>
      <point x="53.0" y="710.0"/>
      <point x="35.0" y="728.0"/>
    </contour>
  </outline>
</glyph>
<glyph name="breve" format="2">
  <advance width="600"/>
  <unicode hex="02D8"/>
  <outline>
    <contour>
      <point x="140.0" y="650.0" type="curve" smooth="yes"/>
      <point x="140.0" y="672.0"/>
      <point x="158.0" y="690.0"/>
      <point x="180.0" y="690.0" type="curve" smooth="yes"/>
      <point x="420.0" y="690.0" type="line" smooth="yes"/>
      <point x="442.0" y="690.0"/>
      <point x="460.0" y="672.0"/>
      <point x="460.0" y="650.0" type="curve" smooth="yes"/>
      <point x="460.0" y="628.0"/>
      <point x="442.0" y="610.0"/>
      <point x="420.0" y="610.0" type="curve" smooth="yes"/>
      <point x="180.0" y="610.0" type="line" smooth="yes"/>
      <point x="158.0" y="610.0"/>
      <point x="140.0" y="628.0"/>
    </contour>
    <contour>
      <point x="440.0" y="750.0" type="curve" smooth="yes"/>
      <point x="440.0" y="772.0"/>
      <point x="458.0" y="790.0"/>
      <point x="480.0" y="790.0" type="curve" smooth="yes"/>
      <point x="520.0" y="790.0" type="line" smooth="yes"/>
      <point x="542.0" y="790.0"/>
      <point x="560.0" y="772.0"/>
      <point x="560.0" y="750.0" type="curve" smooth="yes"/>
      <point x="560.0" y="728.0"/>
      <point x="542.0" y="710.0"/>
      <point x="520.0" y="710.0" type="curve" smooth="yes"/>
      <point x="480.0" y="710.0" type="line" smooth="yes"/>
      <point x="458.0" y="710.0"/>
      <point x="440.0" y="728.0"/>
    </contour>
    <contour>
      <point x="40.0" y="750.0" type="curve" smooth="yes"/>
      <point x="40.0" y="772.0"/>
      <point x="58.0" y="790.0"/>
      <point x="80.0" y="790.0" type="curve" smooth="yes"/>
      <point x="120.0" y="790.0" type="line" smooth="yes"/>
      <point x="142.0" y="790.0"/>
      <point x="160.0" y="772.0"/>
      <point x="160.0" y="750.0" type="curve" smooth="yes"/>
      <point x="160.0" y="728.0"/>
      <point x="142.0" y="710.0"/>
      <point x="120.0" y="710.0" type="curve" smooth="yes"/>
      <point x="80.0" y="710.0" type="line" smooth="yes"/>
      <point x="58.0" y="710.0"/>
      <point x="40.0" y="728.0"/>
    </contour>
  </outline>
</glyph>
<glyph name="ogonek" format="2">
  <advance width="300"/>
  <unicode hex="02DB"/>
  <outline>
    <contour>
      <point x="40.0" y="-150.0" type="curve" smooth="yes"/>
      <point x="40.0" y="-128.0"/>
      <point x="58.0" y="-110.0"/>
      <point x="80.0" y="-110.0" type="curve" smooth="yes"/>
      <point x="220.0" y="-110.0" type="line" smooth="yes"/>
      <point x="242.0" y="-110.0"/>
      <point x="260.0" y="-128.0"/>
      <point x="260.0" y="-150.0" type="curve" smooth="yes"/>
      <point x="260.0" y="-172.0"/>
      <point x="242.0" y="-190.0"/>
      <point x="220.0" y="-190.0" type="curve" smooth="yes"/>
      <point x="80.0" y="-190.0" type="line" smooth="yes"/>
      <point x="58.0" y="-190.0"/>
      <point x="40.0" y="-172.0"/>
    </contour>
    <contour>
      <point x="40.0" y="-50.0" type="curve" smooth="yes"/>
      <point x="40.0" y="-28.0"/>
      <point x="58.0" y="-10.0"/>
      <point x="80.0" y="-10.0" type="curve" smooth="yes"/>
      <point x="120.0" y="-10.0" type="line" smooth="yes"/>
      <point x="142.0" y="-10.0"/>
      <point x="160.0" y="-28.0"/>
      <point x="160.0" y="-50.0" type="curve" smooth="yes"/>
      <point x="160.0" y="-72.0"/>
      <point x="142.0" y="-90.0"/>
      <point x="120.0" y="-90.0" type="curve" smooth="yes"/>
      <point x="80.0" y="-90.0" type="line" smooth="yes"/>
      <point x="58.0" y="-90.0"/>
      <point x="40.0" y="-72.0"/>
    </contour>
  </outline>
</glyph>
<glyph name="uni0307" format="2">
  <unicode hex="0307"/>
  <outline>
    <contour>
      <point x="-60.0" y="650.0" type="curve" smooth="yes"/>
      <point x="-60.0" y="672.0"/>
      <point x="-42.0" y="690.0"/>
      <point x="-20.0" y="690.0" type="curve" smooth="yes"/>
      <point x="20.0" y="690.0" type="line" smooth="yes"/>
      <point x="42.0" y="690.0"/>
      <point x="60.0" y="672.0"/>
      <point x="60.0" y="650.0" type="curve" smooth="yes"/>
      <point x="60.0" y="628.0"/>
      <point x="42.0" y="610.0"/>
      <point x="20.0" y="610.0" type="curve" smooth="yes"/>
      <point x="-20.0" y="610.0" type="line" smooth="yes"/>
      <point x="-42.0" y="610.0"/>
      <point x="-60.0" y="628.0"/>
    </contour>
  </outline>
</glyph>
<glyph name="uni0315" format="2">
  <unicode hex="0315"/>
  <outline>
    <contour>
      <point x="-10.0" y="550.0" type="curve" smooth="yes"/>
      <point x="-10.0" y="572.0"/>
      <point x="8.0" y="590.0"/>
      <point x="30.0" y="590.0" type="curve" smooth="yes"/>
      <point x="70.0" y="590.0" type="line" smooth="yes"/>
      <point x="92.0" y="590.0"/>
      <point x="110.0" y="572.0"/>
      <point x="110.0" y="550.0" type="curve" smooth="yes"/>
      <point x="110.0" y="528.0"/>
      <point x="92.0" y="510.0"/>
      <point x="70.0" y="510.0" type="curve" smooth="yes"/>
      <point x="30.0" y="510.0" type="line" smooth="yes"/>
      <point x="8.0" y="510.0"/>
      <point x="-10.0" y="528.0"/>
    </contour>
    <contour>
      <point x="-10.0" y="650.0" type="curve" smooth="yes"/>
      <point x="-10.0" y="672.0"/>
      <point x="8.0" y="690.0"/>
      <point x="30.0" y="690.0" type="curve" smooth="yes"/>
      <point x="70.0" y="690.0" type="line" smooth="yes"/>
      <point x="92.0" y="690.0"/>
      <point x="110.0" y="672.0"/>
      <point x="110.0" y="650.0" type="curve" smooth="yes"/>
      <point x="110.0" y="628.0"/>
      <point x="92.0" y="610.0"/>
      <point x="70.0" y="610.0" type="curve" smooth="yes"/>
      <point x="30.0" y="610.0" type="line" smooth="yes"/>
      <point x="8.0" y="610.0"/>
      <point x="-10.0" y="628.0"/>
    </contour>
  </outline>
</glyph>
<glyph name="uni0328" format="2">
  <unicode hex="0328"/>
  <outline>
    <contour>
      <point x="-60.0" y="-50.0" type="curve" smooth="yes"/>
      <point x="-60.0" y="-28.0"/>
      <point x="-42.0" y="-10.0"/>
      <point x="-20.0" y="-10.0" type="curve" smooth="yes"/>
      <point x="20.0" y="-10.0" type="line" smooth="yes"/>
      <point x="42.0" y="-10.0"/>
      <point x="60.0" y="-28.0"/>
      <point x="60.0" y="-50.0" type="curve" smooth="yes"/>
      <point x="60.0" y="-72.0"/>
      <point x="42.0" y="-90.0"/>
      <point x="20.0" y="-90.0" type="curve" smooth="yes"/>
      <point x="-20.0" y="-90.0" type="line" smooth="yes"/>
      <point x="-42.0" y="-90.0"/>
      <point x="-60.0" y="-72.0"/>
    </contour>
    <contour>
      <point x="-60.0" y="-150.0" type="curve" smooth="yes"/>
      <point x="-60.0" y="-128.0"/>
      <point x="-42.0" y="-110.0"/>
      <point x="-20.0" y="-110.0" type="curve" smooth="yes"/>
      <point x="20.0" y="-110.0" type="line" smooth="yes"/>
      <point x="31.914397696" y="-110.0"/>
      <point x="42.6556311568" y="-115.279239058"/>
      <point x="50.0" y="-123.614016793" type="curve"/>
      <point x="57.3443688432" y="-115.279239058"/>
      <point x="68.085602304" y="-110.0"/>
      <point x="80.0" y="-110.0" type="curve" smooth="yes"/>
      <point x="120.0" y="-110.0" type="line" smooth="yes"/>
      <point x="142.0" y="-110.0"/>
      <point x="160.0" y="-128.0"/>
      <point x="160.0" y="-150.0" type="curve" smooth="yes"/>
      <point x="160.0" y="-172.0"/>
      <point x="142.0" y="-190.0"/>
      <point x="120.0" y="-190.0" type="curve" smooth="yes"/>
      <point x="80.0" y="-190.0" type="line" smooth="yes"/>
      <point x="68.085602304" y="-190.0"/>
      <point x="57.3443688432" y="-184.720760942"/>
      <point x="50.0" y="-176.385983207" type="curve"/>
      <point x="42.6556311568" y="-184.720760942"/>
      <point x="31.914397696" y="-190.0"/>
      <point x="20.0" y="-190.0" type="curve" smooth="yes"/>
      <point x="-20.0" y="-190.0" type="line" smooth="yes"/>
      <point x="-42.0" y="-190.0"/>
      <point x="-60.0" y="-172.0"/>
    </contour>
  </outline>
</glyph>
<glyph name="emdash" format="2">
  <advance width="600"/>
  <unicode hex="2014"/>
  <outline>
    <contour>
      <point x="-15.0" y="350.0" type="curve" smooth="yes"/>
      <point x="-15.0" y="372.0"/>
      <point x="3.0" y="390.0"/>
      <point x="25.0" y="390.0" type="curve" smooth="yes"/>
      <point x="575.0" y="390.0" type="line" smooth="yes"/>
      <point x="597.0" y="390.0"/>
      <point x="615.0" y="372.0"/>
      <point x="615.0" y="350.0" type="curve" smooth="yes"/>
      <point x="615.0" y="328.0"/>
      <point x="597.0" y="310.0"/>
      <point x="575.0" y="310.0" type="curve" smooth="yes"/>
      <point x="25.0" y="310.0" type="line" smooth="yes"/>
      <point x="3.0" y="310.0"/>
      <point x="-15.0" y="328.0"/>
    </contour>
  </outline>
</glyph>
<glyph name="bullet" format="2">
  <advance width="300"/>
  <unicode hex="2022"/>
  <outline>
    <contour>
      <point x="40.0" y="350.0" type="curve" smooth="yes"/>
      <point x="40.0" y="372.0"/>
      <point x="58.0" y="390.0"/>
      <point x="80.0" y="390.0" type="curve" smooth="yes"/>
      <point x="220.0" y="390.0" type="line" smooth="yes"/>
      <point x="242.0" y="390.0"/>
      <point x="260.0" y="372.0"/>
      <point x="260.0" y="350.0" type="curve" smooth="yes"/>
      <point x="260.0" y="328.0"/>
      <point x="242.0" y="310.0"/>
      <point x="220.0" y="310.0" type="curve" smooth="yes"/>
      <point x="80.0" y="310.0" type="line" smooth="yes"/>
      <point x="58.0" y="310.0"/>
      <point x="40.0" y="328.0"/>
    </contour>
    <contour>
      <point x="40.0" y="450.0" type="curve" smooth="yes"/>
      <point x="40.0" y="472.0"/>
      <point x="58.0" y="490.0"/>
      <point x="80.0" y="490.0" type="curve" smooth="yes"/>
      <point x="220.0" y="490.0" type="line" smooth="yes"/>
      <point x="242.0" y="490.0"/>
      <point x="260.0" y="472.0"/>
      <point x="260.0" y="450.0" type="curve" smooth="yes"/>
      <point x="260.0" y="428.0"/>
      <point x="242.0" y="410.0"/>
      <point x="220.0" y="410.0" type="curve" smooth="yes"/>
      <point x="80.0" y="410.0" type="line" smooth="yes"/>
      <point x="58.0" y="410.0"/>
      <point x="40.0" y="428.0"/>
    </contour>
  </outline>
</glyph>
<glyph name="ellipsis" format="2">
  <advance width="600"/>
  <unicode hex="2026"/>
  <outline>
    <contour>
      <point x="240.0" y="50.0" type="curve" smooth="yes"/>
      <point x="240.0" y="72.0"/>
      <point x="258.0" y="90.0"/>
      <point x="280.0" y="90.0" type="curve" smooth="yes"/>
      <point x="320.0" y="90.0" type="line" smooth="yes"/>
      <point x="342.0" y="90.0"/>
      <point x="360.0" y="72.0"/>
      <point x="360.0" y="50.0" type="curve" smooth="yes"/>
      <point x="360.0" y="28.0"/>
      <point x="342.0" y="10.0"/>
      <point x="320.0" y="10.0" type="curve" smooth="yes"/>
      <point x="280.0" y="10.0" type="line" smooth="yes"/>
      <point x="258.0" y="10.0"/>
      <point x="240.0" y="28.0"/>
    </contour>
    <contour>
      <point x="440.0" y="50.0" type="curve" smooth="yes"/>
      <point x="440.0" y="72.0"/>
      <point x="458.0" y="90.0"/>
      <point x="480.0" y="90.0" type="curve" smooth="yes"/>
      <point x="520.0" y="90.0" type="line" smooth="yes"/>
      <point x="542.0" y="90.0"/>
      <point x="560.0" y="72.0"/>
      <point x="560.0" y="50.0" type="curve" smooth="yes"/>
      <point x="560.0" y="28.0"/>
      <point x="542.0" y="10.0"/>
      <point x="520.0" y="10.0" type="curve" smooth="yes"/>
      <point x="480.0" y="10.0" type="line" smooth="yes"/>
      <point x="458.0" y="10.0"/>
      <point x="440.0" y="28.0"/>
    </contour>
    <contour>
      <point x="40.0" y="50.0" type="curve" smooth="yes"/>
      <point x="40.0" y="72.0"/>
      <point x="58.0" y="90.0"/>
      <point x="80.0" y="90.0" type="curve" smooth="yes"/>
      <point x="120.0" y="90.0" type="line" smooth="yes"/>
      <point x="142.0" y="90.0"/>
      <point x="160.0" y="72.0"/>
      <point x="160.0" y="50.0" type="curve" smooth="yes"/>
      <point x="160.0" y="28.0"/>
      <point x="142.0" y="10.0"/>
      <point x="120.0" y="10.0" type="curve" smooth="yes"/>
      <point x="80.0" y="10.0" type="line" smooth="yes"/>
      <point x="58.0" y="10.0"/>
      <point x="40.0" y="28.0"/>
    </contour>
  </outline>
</glyph>
<glyph name="guilsinglleft" format="2">
  <advance width="300"/>
  <unicode hex="2039"/>
  <outline>
    <contour>
      <point x="140.0" y="250.0" type="curve" smooth="yes"/>
      <point x="140.0" y="272.0"/>
      <point x="158.0" y="290.0"/>
      <point x="180.0" y="290.0" type="curve" smooth="yes"/>
      <point x="220.0" y="290.0" type="line" smooth="yes"/>
      <point x="242.0" y="290.0"/>
      <point x="260.0" y="272.0"/>
      <point x="260.0" y="250.0" type="curve" smooth="yes"/>
      <point x="260.0" y="228.0"/>
      <point x="242.0" y="210.0"/>
      <point x="220.0" y="210.0" type="curve" smooth="yes"/>
      <point x="180.0" y="210.0" type="line" smooth="yes"/>
      <point x="158.0" y="210.0"/>
      <point x="140.0" y="228.0"/>
    </contour>
    <contour>
      <point x="40.0" y="350.0" type="curve" smooth="yes"/>
      <point x="40.0" y="372.0"/>
      <point x="58.0" y="390.0"/>
      <point x="80.0" y="390.0" type="curve" smooth="yes"/>
      <point x="120.0" y="390.0" type="line" smooth="yes"/>
      <point x="142.0" y="390.0"/>
      <point x="160.0" y="372.0"/>
      <point x="160.0" y="350.0" type="curve" smooth="yes"/>
      <point x="160.0" y="328.0"/>
      <point x="142.0" y="310.0"/>
      <point x="120.0" y="310.0" type="curve" smooth="yes"/>
      <point x="80.0" y="310.0" type="line" smooth="yes"/>
      <point x="58.0" y="310.0"/>
      <point x="40.0" y="328.0"/>
    </contour>
    <contour>
      <point x="140.0" y="450.0" type="curve" smooth="yes"/>
      <point x="140.0" y="472.0"/>
      <point x="158.0" y="490.0"/>
      <point x="180.0" y="490.0" type="curve" smooth="yes"/>
      <point x="220.0" y="490.0" type="line" smooth="yes"/>
      <point x="242.0" y="490.0"/>
      <point x="260.0" y="472.0"/>
      <point x="260.0" y="450.0" type="curve" smooth="yes"/>
      <point x="260.0" y="428.0"/>
      <point x="242.0" y="410.0"/>
      <point x="220.0" y="410.0" type="curve" smooth="yes"/>
      <point x="180.0" y="410.0" type="line" smooth="yes"/>
      <point x="158.0" y="410.0"/>
      <point x="140.0" y="428.0"/>
    </contour>
  </outline>
</glyph>
<glyph name="estimated" format="2">
  <advance width="892"/>
  <unicode hex="212E"/>
  <outline>
    <contour>
      <point x="852.0" y="340.0" type="curve"/>
      <point x="188.0" y="340.0" type="line"/>
      <point x="188.0" y="124.0" type="line"/>
      <point x="251.0" y="52.0"/>
      <point x="343.0" y="7.0"/>
      <point x="446.0" y="7.0" type="curve" smooth="yes"/>
      <point x="550.0" y="7.0"/>
      <point x="643.0" y="54.0"/>
      <point x="706.0" y="127.0" type="curve"/>
      <point x="767.0" y="127.0" type="line"/>
      <point x="693.0" y="41.0"/>
      <point x="577.0" y="-15.0"/>
      <point x="446.0" y="-15.0" type="curve" smooth="yes"/>
      <point x="222.0" y="-15.0"/>
      <point x="40.0" y="149.0"/>
      <point x="40.0" y="350.0" type="curve" smooth="yes"/>
      <point x="40.0" y="551.0"/>
      <point x="222.0" y="715.0"/>
      <point x="446.0" y="715.0" type="curve" smooth="yes"/>
      <point x="680.0" y="715.0"/>
      <point x="852.0" y="548.0"/>
    </contour>
    <contour>
      <point x="188.0" y="360.0" type="line"/>
      <point x="704.0" y="360.0" type="line"/>
      <point x="704.0" y="576.0" type="line"/>
      <point x="641.0" y="648.0"/>
      <point x="549.0" y="693.0"/>
      <point x="446.0" y="693.0" type="curve" smooth="yes"/>
      <point x="343.0" y="693.0"/>
      <point x="251.0" y="648.0"/>
      <point x="188.0" y="576.0" type="curve"/>
    </contour>
  </outline>
</glyph>
<glyph name="minus" format="2">
  <advance width="600"/>
  <unicode hex="2212"/>
  <outline>
    <contour>
      <point x="40.0" y="350.0" type="curve" smooth="yes"/>
      <point x="40.0" y="372.0"/>
      <point x="58.0" y="390.0"/>
      <point x="80.0" y="390.0" type="curve" smooth="yes"/>
      <point x="520.0" y="390.0" type="line" smooth="yes"/>
      <point x="542.0" y="390.0"/>
      <point x="560.0" y="372.0"/>
      <point x="560.0" y="350.0" type="curve" smooth="yes"/>
      <point x="560.0" y="328.0"/>
      <point x="542.0" y="310.0"/>
      <point x="520.0" y="310.0" type="curve" smooth="yes"/>
      <point x="80.0" y="310.0" type="line" smooth="yes"/>
      <point x="58.0" y="310.0"/>
      <point x="40.0" y="328.0"/>
    </contour>
  </outline>
</glyph>
<glyph name="uni2219" format="2">
  <advance width="200"/>
  <unicode hex="2219"/>
  <outline>
    <contour>
      <point x="35.0" y="350.0" type="curve" smooth="yes"/>
      <point x="35.0" y="372.0"/>
      <point x="53.0" y="390.0"/>
      <point x="75.0" y="390.0" type="curve" smooth="yes"/>
      <point x="125.0" y="390.0" type="line" smooth="yes"/>
      <point x="147.0" y="390.0"/>
      <point x="165.0" y="372.0"/>
      <point x="165.0" y="350.0" type="curve" smooth="yes"/>
      <point x="165.0" y="328.0"/>
      <point x="147.0" y="310.0"/>
      <point x="125.0" y="310.0" type="curve" smooth="yes"/>
      <point x="75.0" y="310.0" type="line" smooth="yes"/>
      <point x="53.0" y="310.0"/>
      <point x="35.0" y="328.0"/>
    </contour>
  </outline>
</glyph>
<glyph name="lessequal" format="2">
  <advance width="400"/>
  <unicode hex="2264"/>
  <outline>
    <contour>
      <point x="40.0" y="50.0" type="curve" smooth="yes"/>
      <point x="40.0" y="72.0"/>
      <point x="58.0" y="90.0"/>
      <point x="80.0" y="90.0" type="curve" smooth="yes"/>
      <point x="120.0" y="90.0" type="line" smooth="yes"/>
      <point x="131.914397696" y="90.0"/>
      <point x="142.655631157" y="84.7207609416"/>
      <point x="150.0" y="76.3859832073" type="curve"/>
      <point x="157.344368843" y="84.7207609416"/>
      <point x="168.085602304" y="90.0"/>
      <point x="180.0" y="90.0" type="curve" smooth="yes"/>
      <point x="220.0" y="90.0" type="line" smooth="yes"/>
      <point x="231.914397696" y="90.0"/>
      <point x="242.655631157" y="84.7207609416"/>
      <point x="250.0" y="76.3859832073" type="curve"/>
      <point x="257.344368843" y="84.7207609416"/>
      <point x="268.085602304" y="90.0"/>
      <point x="280.0" y="90.0" type="curve" smooth="yes"/>
      <point x="320.0" y="90.0" type="line" smooth="yes"/>
      <point x="342.0" y="90.0"/>
      <point x="360.0" y="72.0"/>
      <point x="360.0" y="50.0" type="curve" smooth="yes"/>
      <point x="360.0" y="28.0"/>
      <point x="342.0" y="10.0"/>
      <point x="320.0" y="10.0" type="curve" smooth="yes"/>
      <point x="280.0" y="10.0" type="line" smooth="yes"/>
      <point x="268.085602304" y="10.0"/>
      <point x="257.344368843" y="15.2792390584"/>
      <point x="250.0" y="23.6140167927" type="curve"/>
      <point x="242.655631157" y="15.2792390584"/>
      <point x="231.914397696" y="10.0"/>
      <point x="220.0" y="10.0" type="curve" smooth="yes"/>
      <point x="180.0" y="10.0" type="line" smooth="yes"/>
      <point x="168.085602304" y="10.0"/>
      <point x="157.344368843" y="15.2792390584"/>
      <point x="150.0" y="23.6140167927" type="curve"/>
      <point x="142.655631157" y="15.2792390584"/>
      <point x="131.914397696" y="10.0"/>
      <point x="120.0" y="10.0" type="curve" smooth="yes"/>
      <point x="80.0" y="10.0" type="line" smooth="yes"/>
      <point x="58.0" y="10.0"/>
      <point x="40.0" y="28.0"/>
    </contour>
    <component base="less" yOffset="100.0"/>
  </outline>
</glyph>
<glyph name="greaterequal" format="2">
  <advance width="400"/>
  <unicode hex="2265"/>
  <outline>
    <contour>
      <point x="35.0" y="50.0" type="curve" smooth="yes"/>
      <point x="35.0" y="72.0"/>
      <point x="53.0" y="90.0"/>
      <point x="75.0" y="90.0" type="curve" smooth="yes"/>
      <point x="125.0" y="90.0" type="line" smooth="yes"/>
      <point x="134.437927657" y="90.0"/>
      <point x="143.1397026" y="86.6873127843"/>
      <point x="150.0" y="81.1672631814" type="curve"/>
      <point x="156.8602974" y="86.6873127843"/>
      <point x="165.562072343" y="90.0"/>
      <point x="175.0" y="90.0" type="curve" smooth="yes"/>
      <point x="225.0" y="90.0" type="line" smooth="yes"/>
      <point x="234.437927657" y="90.0"/>
      <point x="243.1397026" y="86.6873127843"/>
      <point x="250.0" y="81.1672631814" type="curve"/>
      <point x="256.8602974" y="86.6873127843"/>
      <point x="265.562072343" y="90.0"/>
      <point x="275.0" y="90.0" type="curve" smooth="yes"/>
      <point x="325.0" y="90.0" type="line" smooth="yes"/>
      <point x="347.0" y="90.0"/>
      <point x="365.0" y="72.0"/>
      <point x="365.0" y="50.0" type="curve" smooth="yes"/>
      <point x="365.0" y="28.0"/>
      <point x="347.0" y="10.0"/>
      <point x="325.0" y="10.0" type="curve" smooth="yes"/>
      <point x="275.0" y="10.0" type="line" smooth="yes"/>
      <point x="265.562072343" y="10.0"/>
      <point x="256.8602974" y="13.3126872157"/>
      <point x="250.0" y="18.8327368186" type="curve"/>
      <point x="243.1397026" y="13.3126872157"/>
      <point x="234.437927657" y="10.0"/>
      <point x="225.0" y="10.0" type="curve" smooth="yes"/>
      <point x="175.0" y="10.0" type="line" smooth="yes"/>
      <point x="165.562072343" y="10.0"/>
      <point x="156.8602974" y="13.3126872157"/>
      <point x="150.0" y="18.8327368186" type="curve"/>
      <point x="143.1397026" y="13.3126872157"/>
      <point x="134.437927657" y="10.0"/>
      <point x="125.0" y="10.0" type="curve" smooth="yes"/>
      <point x="75.0" y="10.0" type="line" smooth="yes"/>
      <point x="53.0" y="10.0"/>
      <point x="35.0" y="28.0"/>
    </contour>
    <component base="greater" yOffset="100.0"/>
  </outline>
</glyph>
